<?xml version="1.0" encoding="UTF-8"?>
<!DOCTYPE svg PUBLIC "-//W3C//DTD SVG 1.1//EN" "http://www.w3.org/Graphics/SVG/1.1/DTD/svg11.dtd">
<svg version="1.1" xmlns="http://www.w3.org/2000/svg" xmlns:xlink="http://www.w3.org/1999/xlink" width="512" height="512"  xml:space="preserve" id="appicon">
    <!-- Generated by PaintCode (www.paintcodeapp.com) -->
    <path id="appicon-bezier" stroke="none" fill="rgb(170, 170, 170)" d="M 256.5,26 C 125.88,26 20,129.18 20,256.5 20,383.8 125.88,487 256.5,487 387.12,487 493,383.8 493,256.5 493,129.18 387.11,26 256.5,26 Z M 99.1,262.93 L 99.1,222.01 C 99.1,218.54 102,215.7 105.59,215.7 L 178.16,215.7 146.63,269.25 105.6,269.25 C 102,269.25 99.1,266.4 99.1,262.93 Z M 150.75,349.4 L 126.62,365.38 C 123.36,367.55 121.07,366.2 121.51,362.36 L 124.75,334.96 C 125.2,331.16 128.36,329.58 131.77,331.5 L 150.44,341.94 C 153.88,343.86 154.02,347.21 150.75,349.4 Z M 166.36,331.37 C 164.39,334.69 159.98,335.85 156.56,333.93 L 137.88,323.47 C 134.47,321.57 133.27,317.27 135.24,313.94 L 161.57,269.24 193.13,215.69 221.75,167.07 C 223.7,163.76 228.13,162.58 231.55,164.52 L 250.21,174.94 C 253.64,176.87 254.82,181.16 252.85,184.48 L 226.59,229.06 202.96,269.24 166.36,331.37 Z M 217.91,269.25 L 249.44,215.7 278.01,215.7 C 289.06,240.18 297.3,257.27 303.5,269.25 L 217.91,269.25 Z M 329.63,287.22 C 322.17,283.54 284.92,199.75 275.37,177.9 265.83,156.02 236.99,97.84 246.3,93.29 252.96,90.07 276.8,135.87 294.64,163.39 304.83,179.09 321.35,208.93 334.51,233.18 334.69,233.49 334.85,233.81 335.02,234.13 335.62,235.23 336.2,236.32 336.79,237.39 336.96,237.7 337.13,237.99 337.28,238.29 337.81,239.24 338.31,240.19 338.82,241.13 339.09,241.68 339.38,242.2 339.68,242.7 340,243.33 340.33,243.96 340.66,244.56 341.11,245.38 341.56,246.19 342.01,246.99 342.07,247.16 342.15,247.28 342.22,247.43 347.92,257.98 352.27,266.12 354,269.26 354.13,269.52 354.28,269.76 354.37,269.94 358.96,278.03 350.01,284.8 345.01,286.8 340.01,288.81 337.12,290.84 329.63,287.22 Z M 354.12,325.73 L 342.88,308.39 C 340.55,304.77 341.74,300.33 345.52,298.41 L 356.23,293.04 C 360.02,291.16 364.75,292.69 366.77,296.46 L 375.67,313.11 C 377.67,316.87 376.3,321.72 372.65,323.83 L 365,328.29 C 361.36,330.46 356.44,329.29 354.12,325.73 Z M 399.86,375.39 C 397.5,368.03 379.55,367.55 371.5,356.5 363.45,345.46 370.11,339.81 372.9,337.18 405.51,319.27 399.86,375.39 399.86,375.39 Z M 409.19,262.93 C 409.19,266.4 406.29,269.25 402.69,269.25 L 367.88,269.25 C 367.41,267.41 366.72,265.59 365.74,263.84 364.8,262.2 362.14,257.26 358.77,251.01 353.93,242.01 347.07,229.26 339.64,215.71 L 402.68,215.71 C 406.28,215.71 409.18,218.55 409.18,222.02 L 409.19,262.93 Z M 409.19,262.93" />
    <path id="appicon-oval" stroke="rgb(0, 0, 0)" stroke-width="10" fill="none" d="M 256,37 C 379.71,37 480,135.05 480,256 480,376.95 379.71,475 256,475 132.29,475 32,376.95 32,256 32,217.56 42.35,179.79 62.01,146.5" />
    <path id="appicon-bezier2" stroke="rgb(0, 0, 0)" stroke-width="10" stroke-miterlimit="10" fill="none" d="M 256,32 L 256,77" />
    <path id="appicon-oval2" stroke="rgb(0, 0, 0)" stroke-width="10" stroke-miterlimit="10" fill="rgb(0, 0, 0)" d="M 23,-0.5 C 23,11.93 12.93,22 0.5,22 -11.93,22 -22,11.93 -22,-0.5 -22,-12.93 0,-136 0,-136 0,-136 23,-12.93 23,-0.5 Z M 23,-0.5" transform="translate(256, 256) rotate(-58)"  />
</svg>

